<svg xmlns="http://www.w3.org/2000/svg" viewBox="0 0 980 470" preserveAspectRatio="none">
  <rect width="980" height="470" fill="#020617"/>
  <g fill="#1e293b" opacity="0.82">
    <path d="M108 130 C145 110 188 118 218 146 C247 174 280 160 318 174 C345 184 358 215 336 235 C306 264 250 238 218 250 C180 265 152 250 128 223 C102 194 78 156 108 130 Z"/>
    <path d="M218 250 C245 264 270 288 268 323 C265 360 238 391 215 417 C198 390 188 362 191 328 C194 294 199 268 218 250 Z"/>
    <path d="M397 135 C442 118 496 120 545 139 C583 154 614 180 612 214 C610 246 568 257 531 249 C490 240 458 245 425 265 C392 285 337 279 321 248 C304 214 345 155 397 135 Z"/>
    <path d="M493 255 C526 250 552 268 574 298 C594 324 600 352 585 382 C558 368 538 345 522 314 C508 288 495 271 493 255 Z"/>
    <path d="M610 120 C656 102 701 112 741 143 C782 175 829 167 870 190 C906 211 916 246 891 272 C862 303 817 288 784 268 C747 245 711 249 674 268 C639 286 592 277 578 244 C562 207 573 143 610 120 Z"/>
    <path d="M776 292 C815 287 849 308 873 334 C896 358 895 389 868 407 C835 429 780 404 755 371 C732 341 740 301 776 292 Z"/>
    <path d="M456 399 C520 388 596 394 668 410 C608 428 533 432 462 421 C422 416 418 407 456 399 Z"/>
  </g>
  <g stroke="#334155" stroke-width="0.8" opacity="0.5">
    <path d="M0 235 H980"/>
    <path d="M490 0 V470"/>
    <path d="M163 0 V470 M326 0 V470 M653 0 V470 M816 0 V470"/>
    <path d="M0 78 H980 M0 157 H980 M0 313 H980 M0 392 H980"/>
  </g>
</svg>
